HIERARCHY
ROOT reference
{
  OFFSET 0 0 0
  CHANNELS 6 Xposition Yposition Zposition Zrotation Xrotation Yrotation
  JOINT Hips
  {
    OFFSET 366.965 89.8555 201.872
    CHANNELS 3 Zrotation Xrotation Yrotation
    JOINT RightUpLeg
    {
      OFFSET -9.27238 -1.56811 0.0123499
      CHANNELS 3 Zrotation Xrotation Yrotation
      JOINT RightLeg
      {
        OFFSET 0.00682797 -41.8882 0.0419786
        CHANNELS 3 Zrotation Xrotation Yrotation
        JOINT RightFoot
        {
          OFFSET 0.530869 -42.1265 0.242224
          CHANNELS 3 Zrotation Xrotation Yrotation
          End Site
          {
            OFFSET 0 -7.69 17.5
          }
        }
      }
    }
    JOINT LeftUpLeg
    {
      OFFSET 9.28391 -1.61639 -0.0258413
      CHANNELS 3 Zrotation Xrotation Yrotation
      JOINT LeftLeg
      {
        OFFSET 0.0291166 -41.8727 -0.014263
        CHANNELS 3 Zrotation Xrotation Yrotation
        JOINT LeftFoot
        {
          OFFSET -0.125672 -41.4933 -0.195947
          CHANNELS 3 Zrotation Xrotation Yrotation
          End Site
          {
            OFFSET 0 -7.69 17.5
          }
        }
      }
    }
    JOINT Spine
    {
      OFFSET 0.0325614 14.2957 0.0242834
      CHANNELS 3 Zrotation Xrotation Yrotation
      JOINT Spine1
      {
        OFFSET 0.00746153 9.71731 0.0172653
        CHANNELS 3 Zrotation Xrotation Yrotation
        JOINT Spine2
        {
          OFFSET 0.0283815 10.1155 -0.00252583
          CHANNELS 3 Zrotation Xrotation Yrotation
          JOINT Spine3
          {
            OFFSET 0.0279172 9.71841 -0.00465252
            CHANNELS 3 Zrotation Xrotation Yrotation
            JOINT Neck
            {
              OFFSET 0.0182001 10.3765 0.0184284
              CHANNELS 3 Zrotation Xrotation Yrotation
              JOINT Head
              {
                OFFSET 0.0113688 9.47343 0.00632939
                CHANNELS 3 Zrotation Xrotation Yrotation
                End Site
                {
                  OFFSET 0 15.95 0
                }
              }
            }
            JOINT RightShoulder
            {
              OFFSET -3.17351 6.93492 0.00767284
              CHANNELS 3 Zrotation Xrotation Yrotation
              JOINT RightArm
              {
                OFFSET -12.7835 -0.0133269 0.0174019
                CHANNELS 3 Zrotation Xrotation Yrotation
                JOINT RightForeArm
                {
                  OFFSET -26.5112 -0.0170228 0.0247955
                  CHANNELS 3 Zrotation Xrotation Yrotation
                  JOINT RightHand
                  {
                    OFFSET -25.9918 -0.0199622 0.0218897
                    CHANNELS 3 Zrotation Xrotation Yrotation
                    JOINT RightHandThumb1
                    {
                      OFFSET -2.48905 0.190105 3.12053
                      CHANNELS 3 Zrotation Xrotation Yrotation
                      JOINT RightHandThumb2
                      {
                        OFFSET -3.68274 0 0
                        CHANNELS 3 Zrotation Xrotation Yrotation
                        JOINT RightHandThumb3
                        {
                          OFFSET -2.55832 0 0
                          CHANNELS 3 Zrotation Xrotation Yrotation
                          End Site
                          {
                            OFFSET -2.194 0 0
                          }
                        }
                      }
                    }
                    JOINT RightInHandIndex
                    {
                      OFFSET -3.22368 0.508421 1.97842
                      CHANNELS 3 Zrotation Xrotation Yrotation
                      JOINT RightHandIndex1
                      {
                        OFFSET -5.21684 -0.091368 0.999158
                        CHANNELS 3 Zrotation Xrotation Yrotation
                        JOINT RightHandIndex2
                        {
                          OFFSET -3.61937 0 0
                          CHANNELS 3 Zrotation Xrotation Yrotation
                          JOINT RightHandIndex3
                          {
                            OFFSET -2.0521 0 0
                            CHANNELS 3 Zrotation Xrotation Yrotation
                            End Site
                            {
                              OFFSET -1.805 0 0
                            }
                          }
                        }
                      }
                    }
                    JOINT RightInHandMiddle
                    {
                      OFFSET -3.38211 0.517263 0.756737
                      CHANNELS 3 Zrotation Xrotation Yrotation
                      JOINT RightHandMiddle1
                      {
                        OFFSET -5.17411 -0.084 0.313895
                        CHANNELS 3 Zrotation Xrotation Yrotation
                        JOINT RightHandMiddle2
                        {
                          OFFSET -3.94947 0 0
                          CHANNELS 3 Zrotation Xrotation Yrotation
                          JOINT RightHandMiddle3
                          {
                            OFFSET -2.47579 0 0
                            CHANNELS 3 Zrotation Xrotation Yrotation
                            End Site
                            {
                              OFFSET -1.975 0 0
                            }
                          }
                        }
                      }
                    }
                    JOINT RightInHandRing
                    {
                      OFFSET -3.36516 0.537895 -0.128947
                      CHANNELS 3 Zrotation Xrotation Yrotation
                      JOINT RightHandRing1
                      {
                        OFFSET -4.63474 -0.022105 -0.478947
                        CHANNELS 3 Zrotation Xrotation Yrotation
                        JOINT RightHandRing2
                        {
                          OFFSET -3.44238 0 0
                          CHANNELS 3 Zrotation Xrotation Yrotation
                          JOINT RightHandRing3
                          {
                            OFFSET -2.3881 0 0
                            CHANNELS 3 Zrotation Xrotation Yrotation
                            End Site
                            {
                              OFFSET -1.857 0 0
                            }
                          }
                        }
                      }
                    }
                    JOINT RightInHandPinky
                    {
                      OFFSET -3.16105 0.469368 -1.20179
                      CHANNELS 3 Zrotation Xrotation Yrotation
                      JOINT RightHandPinky1
                      {
                        OFFSET -4.14105 -0.022105 -1.09053
                        CHANNELS 3 Zrotation Xrotation Yrotation
                        JOINT RightHandPinky2
                        {
                          OFFSET -2.75653 0 0
                          CHANNELS 3 Zrotation Xrotation Yrotation
                          JOINT RightHandPinky3
                          {
                            OFFSET -1.74189 0 0
                            CHANNELS 3 Zrotation Xrotation Yrotation
                            End Site
                            {
                              OFFSET -1.645 0 0
                            }
                          }
                        }
                      }
                    }
                  }
                }
              }
            }
            JOINT LeftShoulder
            {
              OFFSET 3.23633 6.91116 -0.0162332
              CHANNELS 3 Zrotation Xrotation Yrotation
              JOINT LeftArm
              {
                OFFSET 12.8112 -0.0136289 -0.0286256
                CHANNELS 3 Zrotation Xrotation Yrotation
                JOINT LeftForeArm
                {
                  OFFSET 26.502 -0.0235899 -0.00806802
                  CHANNELS 3 Zrotation Xrotation Yrotation
                  JOINT LeftHand
                  {
                    OFFSET 25.9974 -0.0321613 -0.027004
                    CHANNELS 3 Zrotation Xrotation Yrotation
                    JOINT LeftHandThumb1
                    {
                      OFFSET 2.48905 0.190105 3.12053
                      CHANNELS 3 Zrotation Xrotation Yrotation
                      JOINT LeftHandThumb2
                      {
                        OFFSET 3.68274 0 0
                        CHANNELS 3 Zrotation Xrotation Yrotation
                        JOINT LeftHandThumb3
                        {
                          OFFSET 2.55832 0 0
                          CHANNELS 3 Zrotation Xrotation Yrotation
                          End Site
                          {
                            OFFSET 2.194 0 0
                          }
                        }
                      }
                    }
                    JOINT LeftInHandIndex
                    {
                      OFFSET 3.22368 0.508421 1.97842
                      CHANNELS 3 Zrotation Xrotation Yrotation
                      JOINT LeftHandIndex1
                      {
                        OFFSET 5.21684 -0.091368 0.999158
                        CHANNELS 3 Zrotation Xrotation Yrotation
                        JOINT LeftHandIndex2
                        {
                          OFFSET 3.61937 0 0
                          CHANNELS 3 Zrotation Xrotation Yrotation
                          JOINT LeftHandIndex3
                          {
                            OFFSET 2.0521 0 0
                            CHANNELS 3 Zrotation Xrotation Yrotation
                            End Site
                            {
                              OFFSET 1.805 0 0
                            }
                          }
                        }
                      }
                    }
                    JOINT LeftInHandMiddle
                    {
                      OFFSET 3.38211 0.517263 0.756737
                      CHANNELS 3 Zrotation Xrotation Yrotation
                      JOINT LeftHandMiddle1
                      {
                        OFFSET 5.17411 -0.084 0.313895
                        CHANNELS 3 Zrotation Xrotation Yrotation
                        JOINT LeftHandMiddle2
                        {
                          OFFSET 3.94947 0 0
                          CHANNELS 3 Zrotation Xrotation Yrotation
                          JOINT LeftHandMiddle3
                          {
                            OFFSET 2.47579 0 0
                            CHANNELS 3 Zrotation Xrotation Yrotation
                            End Site
                            {
                              OFFSET 1.975 0 0
                            }
                          }
                        }
                      }
                    }
                    JOINT LeftInHandRing
                    {
                      OFFSET 3.36516 0.537895 -0.128947
                      CHANNELS 3 Zrotation Xrotation Yrotation
                      JOINT LeftHandRing1
                      {
                        OFFSET 4.63474 -0.022105 -0.478947
                        CHANNELS 3 Zrotation Xrotation Yrotation
                        JOINT LeftHandRing2
                        {
                          OFFSET 3.44238 0 0
                          CHANNELS 3 Zrotation Xrotation Yrotation
                          JOINT LeftHandRing3
                          {
                            OFFSET 2.3881 0 0
                            CHANNELS 3 Zrotation Xrotation Yrotation
                            End Site
                            {
                              OFFSET 1.857 0 0
                            }
                          }
                        }
                      }
                    }
                    JOINT LeftInHandPinky
                    {
                      OFFSET 3.16105 0.469368 -1.20179
                      CHANNELS 3 Zrotation Xrotation Yrotation
                      JOINT LeftHandPinky1
                      {
                        OFFSET 4.14105 -0.022105 -1.09053
                        CHANNELS 3 Zrotation Xrotation Yrotation
                        JOINT LeftHandPinky2
                        {
                          OFFSET 2.75653 0 0
                          CHANNELS 3 Zrotation Xrotation Yrotation
                          JOINT LeftHandPinky3
                          {
                            OFFSET 1.74189 0 0
                            CHANNELS 3 Zrotation Xrotation Yrotation
                            End Site
                            {
                              OFFSET 1.645 0 0
                            }
                          }
                        }
                      }
                    }
                  }
                }
              }
            }
          }
        }
      }
    }
  }
}
MOTION
Frames: 2
Frame Time: 0.00833333
4.500000000000000000e+02 0.000000000000000000e+00 0.000000000000000000e+00 0.000000000000000000e+00 0.000000000000000000e+00 0.000000000000000000e+00 3.781839510494091477e-02 -3.185724271508633132e-02 -7.519351235385881432e-03 -2.983873794752041342e-02 -6.039889520942986340e-02 1.711408875115144612e-02 -5.384494722614996398e-02 1.462784601063958634e-01 1.600079248383742825e-01 7.696593764133347060e-02 -1.224332230856436388e-01 -1.175699369449864501e-01 -7.348941557416975578e-02 -5.191306739850001795e-02 -6.181524825169994186e-02 -8.355577124587190707e-03 2.361441604997391655e-02 8.605135536509026309e-03 4.885922851469633177e-02 5.431913331683205226e-03 6.030576971386463619e-02 -9.967998515315268371e-03 2.266655810041651870e-02 7.013224909645954241e-02 -4.102454276884227521e-03 3.119103502123960273e-03 1.954711274168525331e-02 -4.626629837719720140e-03 1.000660224837118285e-02 2.771256032052215809e-02 -5.649591759974892727e-03 3.017258577601673181e-03 -1.806529024865813913e-03 -7.663251471028224501e-03 1.138112642699273293e-02 -5.700740769641750999e-02 -9.948191776256096186e-02 2.419407971305458441e-02 -4.709226101081814830e-02 -3.747728268457820033e-02 -1.811086225036722536e-02 7.213011811525646237e-03 2.729006765861885508e-01 -4.120179467601989276e-02 -5.595226045850520968e-02 -8.820290257218802443e-01 7.709946904531779222e-01 -8.650999634031976138e-01 3.198324686175895160e-01 -5.777606888521552575e-01 7.854917918981141334e-02 0.000000000000000000e+00 0.000000000000000000e+00 0.000000000000000000e+00 1.724774693593924425e-15 -1.223380928787466556e-15 0.000000000000000000e+00 2.454377292745843720e-15 -3.855718132089983437e-15 0.000000000000000000e+00 -3.958368426267408340e-15 -2.537208926931635046e-15 8.782712660259296210e-16 0.000000000000000000e+00 0.000000000000000000e+00 0.000000000000000000e+00 0.000000000000000000e+00 3.329863752667418915e-15 1.472825493614598785e-14 0.000000000000000000e+00 1.192004324841284788e-15 6.175905097082431765e-15 -3.958368426267408340e-15 -2.537208926931635046e-15 8.782712660259296210e-16 0.000000000000000000e+00 1.244039427719327689e-15 7.635433168469716859e-15 0.000000000000000000e+00 4.088843420453176698e-15 9.079995432774035745e-15 0.000000000000000000e+00 -1.548984090899644222e-15 2.235279319201745370e-15 -3.958368426267408340e-15 -2.537208926931635046e-15 8.782712660259296210e-16 0.000000000000000000e+00 0.000000000000000000e+00 0.000000000000000000e+00 0.000000000000000000e+00 2.152530631876291639e-15 2.227089624230599400e-14 0.000000000000000000e+00 3.001732272782656309e-15 1.041446357242362463e-14 -3.958368426267408340e-15 -2.537208926931635046e-15 8.782712660259296210e-16 0.000000000000000000e+00 0.000000000000000000e+00 0.000000000000000000e+00 0.000000000000000000e+00 9.066830252856229278e-15 2.951414503679383920e-14 0.000000000000000000e+00 3.658971971811083051e-16 6.243362320356569984e-15 3.744788543615566040e-02 -6.789025641459178750e-02 2.797668631919274923e-02 -2.307876527016908350e-03 2.682085941503480342e-01 1.092780643148675429e-01 -1.043951240495947896e+00 -2.346611157914388346e-01 -1.099856696521890331e+00 4.432731610034977843e-01 3.711937184793896449e-01 2.289983828376572494e-01 0.000000000000000000e+00 0.000000000000000000e+00 0.000000000000000000e+00 -1.541776384601518982e-15 -3.151904948706196029e-15 0.000000000000000000e+00 1.578959719898797404e-15 5.390320002667841195e-16 0.000000000000000000e+00 -2.391581718828615500e-15 2.148864301636304978e-15 1.642617320450154745e-15 0.000000000000000000e+00 0.000000000000000000e+00 0.000000000000000000e+00 0.000000000000000000e+00 -3.415907182927695399e-17 3.220816923785619934e-15 0.000000000000000000e+00 1.939318024176239579e-15 8.181862401838289226e-15 -2.391581718828615500e-15 2.148864301636304978e-15 1.642617320450154745e-15 0.000000000000000000e+00 6.265837319285968230e-16 3.253116042457809469e-16 0.000000000000000000e+00 1.053156883094508759e-15 3.751199300712751628e-15 0.000000000000000000e+00 1.011118000178045823e-15 -1.581985487937618634e-16 -2.391581718828615500e-15 2.148864301636304978e-15 1.642617320450154745e-15 0.000000000000000000e+00 0.000000000000000000e+00 0.000000000000000000e+00 0.000000000000000000e+00 -2.202732611832729503e-15 3.252560573476751833e-15 0.000000000000000000e+00 -2.685770408723013839e-15 1.067142989570300518e-14 -2.391581718828615500e-15 2.148864301636304978e-15 1.642617320450154745e-15 0.000000000000000000e+00 0.000000000000000000e+00 0.000000000000000000e+00 0.000000000000000000e+00 -1.737594291725164170e-15 -1.006346988933953511e-15 0.000000000000000000e+00 2.129646012885637545e-15 3.403312160620639554e-15
4.500000000000000000e+02 0.000000000000000000e+00 0.000000000000000000e+00 0.000000000000000000e+00 0.000000000000000000e+00 0.000000000000000000e+00 3.706406474426605230e-02 -1.795825430309441056e-02 1.056226178296661459e-03 -3.783551632709695328e-02 -4.463062499422538326e-02 -8.905103558252757540e-03 -7.030584194974506818e-02 1.966973688625361649e-01 2.268383898825674927e-01 1.027169829600519668e-01 -1.848853096111754968e-01 -1.662427906524993892e-01 -7.726243175057007084e-02 -5.564751115922787067e-02 -7.536726782544365955e-02 -1.156513899203516146e-02 1.475751764647806503e-02 1.924363270207681215e-03 4.398694153574533861e-02 1.332659952292186527e-02 5.959194761861973111e-02 -8.943167371279181141e-03 1.038468558620400141e-02 5.040587613526196359e-02 -3.767352760434561961e-03 4.166946785606429017e-04 1.472009069337715075e-02 -4.168083518938554832e-03 4.684064487856205022e-03 2.039398476664229867e-02 -5.206600572769843303e-03 3.139191890424524421e-03 -1.460522136968959951e-03 -7.510562001754506403e-03 6.300419699123915689e-03 -2.906795161844440145e-02 -9.291377755201746247e-02 3.634598884417972187e-02 -6.996218988420936646e-02 -3.027125811100105438e-02 -2.906124196781011484e-02 1.120911977646596620e-02 1.303328811471775872e-01 -4.707561540405690720e-02 -5.209555465164895233e-02 -1.378261682444443803e+00 8.698840622409375056e-01 -1.423710006315116905e+00 5.241702066283048245e-01 -7.304757647833460821e-01 2.774713925746183363e-01 0.000000000000000000e+00 0.000000000000000000e+00 0.000000000000000000e+00 1.145509826002342426e-15 -3.094694624241143921e-17 0.000000000000000000e+00 2.977591514857340477e-15 -2.445407398720203054e-15 0.000000000000000000e+00 -3.325775471421888851e-15 -1.244061369195000474e-15 1.922566863888517440e-16 0.000000000000000000e+00 0.000000000000000000e+00 0.000000000000000000e+00 0.000000000000000000e+00 3.682274449426461602e-15 1.410197448053225771e-14 0.000000000000000000e+00 1.505321977204371036e-15 6.484799904695033473e-15 -3.325775471421888851e-15 -1.244061369195000474e-15 1.922566863888517440e-16 0.000000000000000000e+00 1.419182109507424141e-15 5.020871326871296824e-15 0.000000000000000000e+00 3.333769692905000193e-15 7.787703469454156451e-15 0.000000000000000000e+00 -2.211470002693926485e-15 4.249514306554523694e-15 -3.325775471421888851e-15 -1.244061369195000474e-15 1.922566863888517440e-16 0.000000000000000000e+00 0.000000000000000000e+00 0.000000000000000000e+00 0.000000000000000000e+00 1.478120084547320877e-15 2.099169788959961472e-14 0.000000000000000000e+00 3.650868006157663302e-15 1.092303683168114135e-14 -3.325775471421888851e-15 -1.244061369195000474e-15 1.922566863888517440e-16 0.000000000000000000e+00 0.000000000000000000e+00 0.000000000000000000e+00 0.000000000000000000e+00 8.707835220748911395e-15 2.999044138254906164e-14 0.000000000000000000e+00 -1.031173396928121726e-15 7.904262556774148087e-15 3.291815956233240525e-02 -1.027436963348935250e-01 1.601931027381426828e-02 -2.498933130236177802e-02 2.535353263490716658e-01 1.191580597823082982e-01 -1.075876130848209433e+00 -3.017017594421472770e-01 -1.167501664998895405e+00 5.542651410727382766e-01 5.640982793806025297e-01 3.214782803049184290e-01 0.000000000000000000e+00 0.000000000000000000e+00 0.000000000000000000e+00 -1.878561234928800644e-15 -4.646862628894410119e-15 0.000000000000000000e+00 4.163894726147366572e-16 -6.143823139495905987e-16 0.000000000000000000e+00 -2.039219443047378881e-15 6.282381081806456310e-16 1.309616212612229920e-15 0.000000000000000000e+00 0.000000000000000000e+00 0.000000000000000000e+00 0.000000000000000000e+00 3.027474622041174559e-16 2.749485269997857156e-15 0.000000000000000000e+00 1.708846461437994227e-15 7.359697176658865399e-15 -2.039219443047378881e-15 6.282381081806456310e-16 1.309616212612229920e-15 0.000000000000000000e+00 6.248820990244397057e-16 9.548644345291503129e-17 0.000000000000000000e+00 2.360233934884260081e-15 2.908439758832287094e-15 0.000000000000000000e+00 1.337988457468977213e-15 -9.522782974442966336e-16 -2.039219443047378881e-15 6.282381081806456310e-16 1.309616212612229920e-15 0.000000000000000000e+00 0.000000000000000000e+00 0.000000000000000000e+00 0.000000000000000000e+00 -2.592141724279567292e-15 1.406662460522751118e-15 0.000000000000000000e+00 -2.057119664481890602e-15 8.812415646224817510e-15 -2.039219443047378881e-15 6.282381081806456310e-16 1.309616212612229920e-15 0.000000000000000000e+00 0.000000000000000000e+00 0.000000000000000000e+00 0.000000000000000000e+00 -1.520564863460681036e-15 -1.530116015360242631e-15 0.000000000000000000e+00 2.320089478734773893e-15 1.952648036807450971e-15
